# xmcd
#
# Track frame offsets:
#	150
#	12382
#	22620
#	33740
#	46852
#	51562
#	63730
#	72710
#	90035
#	102027
#	113060
#	126995
#	143420
#	157582
#	169897
#	177970
#	180315
#	195365
#	202050
#	222352
#	230947
#	245125
#	261550
#	272102
#	295012
#	302555
#	324195
#	332010
#	348567
#
# Disc length: 4724 seconds
#
# Revision: 1
# Processed by: cddbd v1.5.1PL0 Copyright (c) Steve Scherf et al.
# Submitted via: audiograbber 1.83.01
#
DISCID=a912721d
DTITLE=Peter La Farge - Songs of the Cowboys - Iron Mountain
DYEAR=1992
DGENRE=Country
TTITLE0=Whoopie Ti  Yi Yo
TTITLE1=The Chisholm Trail
TTITLE2=Trail To Mexico
TTITLE3=Sirey Peaks
TTITLE4=Lavender Cowboy
TTITLE5=I've Got No Use For The Women
TTITLE6=I Ride An Old Paint
TTITLE7=The Cowboy's Lament
TTITLE8=Yavipii Pete
TTITLE9=When The Works All Done This Fall
TTITLE10=The Cowboys Dream
TTITLE11=The Black Stallion
TTITLE12=Walkin' John
TTITLE13=The Strawberry Roan
TTITLE14=The Rodeo Hand
TTITLE15=Cattle Calls
TTITLE16=Stumbling
TTITLE17=Pop Reed
TTITLE18=Pony Called Nell
TTITLE19=Marijuana Blues
TTITLE20=Snow Bird Blues
TTITLE21=Hungry Blues
TTITLE22=Avril Blues
TTITLE23=Santa Fe
TTITLE24=Alaska, 49th State
TTITLE25=Iron Mountain
TTITLE26=Falling Stars
TTITLE27=Abraham Lincoln
TTITLE28=Cisco Houston
EXTD=
EXTT0=
EXTT1=
EXTT2=
EXTT3=
EXTT4=
EXTT5=
EXTT6=
EXTT7=
EXTT8=
EXTT9=
EXTT10=
EXTT11=
EXTT12=
EXTT13=
EXTT14=
EXTT15=
EXTT16=
EXTT17=
EXTT18=
EXTT19=
EXTT20=
EXTT21=
EXTT22=
EXTT23=
EXTT24=
EXTT25=
EXTT26=
EXTT27=
EXTT28=
PLAYORDER=
